<?xml version="1.0" standalone="no"?>
<!DOCTYPE svg PUBLIC "-//W3C//DTD SVG 20010904//EN"
 "http://www.w3.org/TR/2001/REC-SVG-20010904/DTD/svg10.dtd">
<svg version="1.0" xmlns="http://www.w3.org/2000/svg"
 width="270.000000pt" height="270.000000pt" viewBox="0 0 270.000000 270.000000"
 preserveAspectRatio="xMidYMid meet">
<metadata>
Created by potrace 1.11, written by Peter Selinger 2001-2013
</metadata>
<g transform="translate(0.000000,270.000000) scale(0.100000,-0.100000)"
fill="#000000" stroke="none">
<path d="M1175 2690 c-122 -19 -188 -36 -300 -77 -184 -67 -374 -195 -507
-338 -69 -75 -88 -100 -142 -180 -153 -231 -225 -473 -224 -753 1 -164 33
-337 88 -477 6 -16 11 -32 11 -35 0 -20 113 -213 164 -281 224 -298 520 -475
895 -536 89 -15 350 -8 445 11 567 117 989 554 1078 1118 32 202 13 431 -53
629 -45 136 -82 214 -156 324 -198 298 -492 497 -849 577 -97 21 -357 32 -450
18z m355 -275 c150 -27 297 -86 430 -173 60 -40 223 -197 261 -252 90 -132
163 -293 184 -410 19 -105 23 -144 23 -235 -2 -571 -450 -1041 -1019 -1072
-314 -17 -619 103 -832 327 -144 150 -252 351 -283 524 -3 17 -9 47 -13 66
-13 58 -10 263 5 342 67 354 288 645 604 795 187 89 439 124 640 88z"/>
<path d="M1238 2035 c-15 -8 -30 -25 -34 -37 -4 -13 -8 -98 -9 -191 -1 -166
-1 -168 -27 -193 -36 -36 -68 -33 -241 24 -155 51 -197 56 -228 26 -23 -24
-79 -189 -72 -214 10 -37 51 -58 208 -110 88 -29 166 -59 173 -67 24 -24 31
-69 16 -99 -11 -21 -107 -153 -195 -269 -4 -6 -10 -25 -13 -42 -7 -39 16 -70
97 -129 65 -47 106 -56 144 -29 11 8 69 79 127 158 100 135 135 169 167 163
45 -8 68 -31 168 -166 61 -82 119 -154 130 -160 40 -21 76 -11 149 43 73 53
100 94 86 133 -4 10 -49 75 -100 144 -109 147 -123 172 -116 205 8 45 44 66
202 117 214 68 227 84 179 220 -46 127 -71 142 -181 107 -40 -13 -75 -24 -78
-24 -3 -1 -12 -4 -20 -8 -75 -28 -172 -54 -193 -50 -14 3 -36 16 -48 29 -22
23 -23 32 -24 192 -1 92 -5 177 -9 190 -4 12 -20 29 -36 37 -39 20 -185 20
-222 0z"/>
</g>
</svg>
