<svg width="512" height="512" viewBox="0 0 512 512" fill="none" xmlns="http://www.w3.org/2000/svg">
<path fill-rule="evenodd" clip-rule="evenodd" d="M438.097 435.935C437.217 435.946 436.335 435.951 435.45 435.951C369.449 435.951 317.232 405.482 254.99 329.934C193.165 405.064 141.784 435.117 75.3642 435.117C74.6033 435.117 73.844 435.113 73.0863 435.105C119.555 482.556 184.339 512 256 512C327.242 512 391.688 482.899 438.097 435.935ZM439.435 77.4289C438.527 77.4178 437.616 77.4122 436.704 77.4122C368.613 77.4122 315.561 108.299 257.078 182.595C197.76 107.882 143.455 76.5774 76.1996 76.5774C75.2574 76.5774 74.3174 76.5836 73.3796 76.596C119.827 29.3207 184.49 0 256 0C327.93 0 392.93 29.6654 439.435 77.4289ZM197.76 256.056C150.974 197.203 120.062 175.499 82.8834 175.499C36.0972 175.499 0.172119 210.56 0.172119 256.056C0.172119 301.551 36.5149 336.612 83.3011 336.612C121.315 336.612 153.48 313.656 197.76 256.056ZM428.349 336.195C475.135 336.195 511.896 301.134 511.896 255.638C511.896 210.143 475.971 175.499 429.184 175.499C390.335 175.499 356.917 198.873 313.89 256.473C362.347 315.743 392.006 336.195 428.349 336.195Z" fill="#111111"/>
</svg>
