<svg width="35" height="32" viewBox="0 0 35 32" fill="none" xmlns="http://www.w3.org/2000/svg">
    <path d="M33.0666 14.9335C32.8243 14.9337 32.5891 14.8513 32.3999 14.6999L17.0668 2.43237L1.73362 14.6999C1.62423 14.7875 1.49865 14.8526 1.36408 14.8917C1.22951 14.9307 1.08857 14.9428 0.949305 14.9274C0.810043 14.9119 0.675189 14.8692 0.552441 14.8016C0.429694 14.734 0.321456 14.643 0.23391 14.5336C0.146363 14.4242 0.0812209 14.2986 0.0422032 14.164C0.00318543 14.0294 -0.00894395 13.8885 0.00650752 13.7492C0.021959 13.61 0.0646887 13.4751 0.132257 13.3524C0.199825 13.2296 0.290909 13.1214 0.400308 13.0338L16.4001 0.233997C16.5893 0.0825289 16.8244 0 17.0668 0C17.3091 0 17.5442 0.0825289 17.7334 0.233997L33.7332 13.0338C33.9059 13.1719 34.0314 13.3602 34.0924 13.5728C34.1533 13.7853 34.1468 14.0115 34.0735 14.2201C34.0003 14.4287 33.8641 14.6094 33.6837 14.7372C33.5033 14.865 33.2877 14.9337 33.0666 14.9335Z" fill="#161638"/>
    <path d="M17.0669 5.16513L4.26709 15.405V30.9333C4.26709 31.2162 4.37947 31.4875 4.57951 31.6876C4.77954 31.8876 5.05085 32 5.33374 32H28.8001C29.083 32 29.3543 31.8876 29.5544 31.6876C29.7544 31.4875 29.8668 31.2162 29.8668 30.9333V15.405L17.0669 5.16513Z" fill="#161638"/>
</svg>
